<svg width="1440" height="1024" viewBox="0 0 1440 1024" fill="none" xmlns="http://www.w3.org/2000/svg">
<g clip-path="url(#clip0_195_418)">
<rect width="1440" height="1024" fill="white"/>
<path d="M1236.41 459.687C1301.52 539.804 1391.29 545.787 1443 534.548V914H401V638.555C411.027 638.555 428.299 633.144 445.217 638.555C482.876 650.598 527.358 742.295 565.126 753.469C657.152 780.697 753.526 584.997 753.526 584.997C753.526 584.997 821.344 470.26 867.291 400.642C912.218 332.573 954.735 294 1046.27 294C1120.2 294 1191.2 404.046 1236.41 459.687Z" fill="#FDF6EE"/>
<path d="M-7.99997 627C-7.99997 627 2 739 -8 847L-7.99997 914H1160V697.642C1146.16 697.642 1122.33 693.392 1098.98 697.642C1047.01 707.102 985.621 779.129 933.5 787.906C806.5 809.293 673.5 655.574 673.5 655.574C673.5 655.574 579.91 565.449 516.5 510.766C454.5 457.298 395.825 427 269.5 427C167.478 427 -7.99997 627 -7.99997 627Z" fill="#FDF6EE"/>
<path d="M395 116C423.419 147.55 497.606 209.149 567.008 203.139C653.759 195.627 713 171 787.377 194.125C833.677 208.52 829.257 253.219 871.137 285.771C913.017 318.323 1095.49 239.197 1095.49 239.197C1095.49 239.197 1224.13 181.605 1236.59 239.197C1249.06 296.789 1197.7 365.398 1221.14 379.421C1239.88 390.638 1376.86 339.357 1443 312.313" stroke="#E17A0E" stroke-opacity="0.24"/>
<path d="M3 747.669C31.934 723.526 81.6557 688.244 140.925 672.243C208.5 654 325.663 640.964 374.172 715.201C398.132 751.869 372.128 793.5 401 825.5C429.691 857.299 477.941 836.863 514.5 854C546.5 869 555 895.5 570 914" stroke="#E4E4E4"/>
<path d="M1168.47 784.936C1167.93 782.69 1170.02 780.703 1172.24 781.359L1178.88 783.327C1181.09 783.984 1181.77 786.791 1180.09 788.38L1175.07 793.149C1173.39 794.738 1170.62 793.918 1170.08 791.673L1168.47 784.936Z" fill="#EC9AC1"/>
<path d="M889.094 338.494C888.555 336.249 890.649 334.262 892.864 334.918L907.81 339.346C910.024 340.002 910.698 342.809 909.022 344.399L897.714 355.128C896.039 356.718 893.271 355.898 892.732 353.652L889.094 338.494Z" fill="#A6EC9A"/>
<circle cx="588.5" cy="298.5" r="4.5" fill="#FFD6D6"/>
<circle cx="1312.5" cy="259.5" r="4.5" fill="#F9D6FF"/>
<rect x="754.651" y="276.522" width="35" height="35" rx="10" transform="rotate(-35.9958 754.651 276.522)" fill="#0CBE64"/>
<path fill-rule="evenodd" clip-rule="evenodd" d="M1053.09 503.537C1051.65 504.287 1050.8 505.885 1050.66 508.067L1050.55 509.68L1046.83 510.081C1041.73 510.631 1029.89 511.624 1026.16 511.816L1023.08 511.974L1021.45 510.993C1017.75 508.764 1014.89 508.912 1012.88 511.439C1011.14 513.63 1010.91 515.068 1009.56 531.986L1008.79 541.626L1007.3 540.932C1004.39 539.575 1001.56 540.389 1000.13 542.996C999.774 543.636 999.483 544.45 999.48 544.805L999.475 545.45L995.652 545.448C989.027 545.443 979.414 545.945 978.977 546.318C978.571 546.664 978.356 546.43 976.245 543.339C974.07 540.154 971.578 539.094 969.005 540.26C967.989 540.72 966.54 542.025 966.54 542.48C966.54 542.633 966.347 542.877 966.111 543.024C965.875 543.171 965.28 543.962 964.788 544.781C948.057 572.658 936.573 593.246 924.472 617.053C918.664 628.481 917.977 630.304 918.001 634.231C918.021 637.751 918.944 640.276 921.513 643.848C924.678 648.248 948.011 671.688 959.012 681.518C964.423 686.353 969.088 689.923 973.173 692.354C986.213 700.112 1000.23 700.366 1007.1 692.97C1008.41 691.556 1008.7 690.788 1008.13 690.22C1007.5 689.593 1006.72 689.921 1005.24 691.431C1003.6 693.109 1001.56 694.337 999.122 695.112C996.588 695.917 990.625 696.032 987.242 695.341C984.073 694.694 981.256 693.751 978.238 692.328C969.875 688.385 961.755 681.524 941.68 661.44C922.412 642.163 920.777 640.099 920.491 634.694C920.306 631.181 920.756 629.945 925.956 619.688C937.58 596.765 950.956 572.634 965.083 549.1C968.395 543.585 968.647 543.244 969.911 542.598C971.636 541.717 972.467 542.277 975.352 546.271C979.037 551.372 981.704 554.237 990.417 562.452C992.876 564.77 996.634 568.364 998.769 570.438C1017.71 588.844 1026.83 596.271 1033.26 598.542C1039.33 600.682 1045.18 599.032 1047.37 594.567C1048.63 591.991 1048.34 588.643 1046.65 586.442C1045.53 584.971 1030.12 570.753 1015.71 557.874C1014.61 556.891 1011.06 553.783 1007.83 550.965C1004.15 547.764 1001.92 545.66 1001.88 545.354C1001.79 544.625 1002.66 543.385 1003.56 542.953C1004.77 542.379 1005.79 542.69 1007.88 544.265C1011.97 547.34 1029.87 562.312 1039.59 570.783C1042.18 573.04 1045.38 575.822 1046.7 576.963C1051.25 580.889 1053.76 583.959 1055.23 587.406C1055.98 589.164 1056.64 592.415 1056.64 594.328C1056.63 596.019 1055.87 599.498 1055.14 601.129C1054.8 601.886 1054.52 602.647 1054.52 602.818C1054.52 602.989 1054.38 603.213 1054.2 603.316C1054.03 603.419 1052.58 605.931 1051 608.899C1045.54 619.088 1039.84 629.572 1031.35 645.021C1029.44 648.504 1026.92 653.095 1025.76 655.224C1024.59 657.353 1022.03 662.05 1020.05 665.662C1013.01 678.558 1007.71 688.573 1007.71 689.001C1007.71 689.65 1008.39 690.208 1009.09 690.127C1009.63 690.065 1010.07 689.37 1012.84 684.192C1016.85 676.707 1025.37 661.005 1025.51 660.86C1025.57 660.8 1025.69 660.855 1025.78 660.983C1025.87 661.111 1028.11 663.269 1030.76 665.778C1033.42 668.287 1036.7 671.408 1038.06 672.714C1053.32 687.38 1058.39 691.812 1064.08 695.478C1068.22 698.145 1073.61 700.36 1078.66 701.472C1080.58 701.896 1081.76 701.988 1085.46 701.999C1089.35 702.011 1090.2 701.944 1092.04 701.48C1099.3 699.658 1103.65 696.385 1106.6 690.525C1107.23 689.266 1107.32 688.801 1107.48 686.109C1107.57 684.453 1107.7 683.046 1107.77 682.982C1107.83 682.917 1108.65 683.503 1109.58 684.283C1117.97 691.312 1129.11 695.267 1137.1 694.053C1143.28 693.112 1148.23 690.034 1150.27 685.856C1151.81 682.701 1152.63 676.623 1153.33 663.082C1153.46 660.373 1153.79 654.462 1154.04 649.947C1154.29 645.431 1154.76 636.882 1155.09 630.947C1155.41 625.013 1155.89 616.358 1156.15 611.713C1156.58 604.125 1157.54 586.533 1157.94 579.066C1158.03 577.494 1158.02 576.016 1157.92 575.782C1157.83 575.548 1157.74 574.882 1157.71 574.301C1157.62 572.161 1155.48 568.65 1152.69 566.07C1149.72 563.336 1130.95 547.696 1122.98 541.318C1117.46 536.906 1110.12 531.541 1108.43 530.685C1106.98 529.957 1105.02 529.99 1103.31 530.771C1101.61 531.551 1100.68 532.228 1100.16 533.071L1099.74 533.762L1097.78 532.029C1087.86 523.286 1074.38 513.316 1061.88 505.475C1057.98 503.031 1055.22 502.422 1053.09 503.537ZM1057.06 505.674C1059.54 506.546 1071.49 514.449 1080.21 520.983C1087.16 526.19 1092.03 530.203 1100.63 537.833C1107.16 543.626 1109.18 546.092 1110.15 549.477C1110.36 550.208 1110.69 550.932 1110.87 551.086C1111.33 551.463 1112.32 551.189 1112.64 550.598C1112.93 550.059 1112.46 548.126 1111.66 546.572C1111.41 546.084 1111.26 545.685 1111.32 545.685C1111.54 545.685 1146.56 573.508 1148.23 575.007C1148.51 575.262 1147.96 576.889 1147.32 577.687L1146.77 578.376L1145.52 577.388C1143.58 575.852 1133.23 567.952 1128.27 564.217C1122.69 560.012 1120.64 558.437 1116.59 555.25C1114.82 553.859 1113.31 552.722 1113.21 552.722C1113.12 552.722 1112.84 552.458 1112.59 552.135C1112.32 551.8 1111.88 551.549 1111.56 551.549C1110.38 551.549 1110.36 551.711 1109.94 565.153C1108.89 599.035 1107.36 640.271 1106.63 654.52C1106.56 655.875 1106.34 660.361 1106.15 664.489C1105.96 668.617 1105.6 675.7 1105.35 680.229L1104.91 688.464L1104.21 689.848C1101.63 694.927 1096.98 698.058 1090.26 699.223C1087.53 699.696 1081.46 699.563 1078.75 698.97C1072.33 697.564 1065.79 694.183 1059.23 688.882C1055.54 685.903 1051.75 682.377 1031.47 663.072C1030.24 661.902 1028.67 660.417 1027.97 659.771L1026.71 658.597L1032.23 648.525C1035.27 642.986 1039 636.184 1040.52 633.41C1043.38 628.205 1051.92 612.389 1054.48 607.579C1055.28 606.08 1055.93 604.725 1055.93 604.568C1055.93 604.411 1056.14 604.107 1056.39 603.893C1057.61 602.845 1058.98 597.753 1058.98 594.239C1058.98 588.629 1056.93 583.858 1052.55 579.285C1048.58 575.141 1032.25 561.012 1015.7 547.408C1010.3 542.966 1010.34 543.007 1010.82 542.455C1011.03 542.221 1011.24 541.356 1011.32 540.407C1011.4 539.504 1011.62 536.865 1011.82 534.543C1012.02 532.221 1012.45 527.153 1012.77 523.28C1013.38 515.893 1013.46 515.418 1014.26 513.859C1015.04 512.327 1015.82 511.843 1017.3 511.964C1018.74 512.081 1018.26 511.777 1029 519.448C1037.94 525.838 1048.52 533.157 1058.27 539.704C1077.12 552.371 1081.54 554.971 1086.14 556.126C1096.05 558.616 1104.68 552.982 1101.59 546.03C1099.87 542.138 1092.35 535.824 1072.4 521.523C1064.56 515.898 1060.42 512.85 1057.37 510.44L1055.64 509.068L1054.37 509.225L1053.11 509.382V508.288C1053.11 505.79 1054.6 504.808 1057.06 505.674ZM1056.59 512.925C1058.87 514.737 1064.39 518.786 1073.07 525.016C1088.83 536.336 1097.44 543.394 1098.89 546.204C1099.09 546.587 1099.22 546.93 1099.18 546.964C1099.02 547.092 1086.84 538.267 1077.77 531.462C1072.64 527.609 1064.71 521.66 1060.16 518.241C1052.03 512.145 1051.89 512.023 1052.67 511.881C1054.61 511.528 1054.95 511.619 1056.59 512.925ZM1059.02 518.951C1082.41 536.593 1092.65 544.141 1098.45 548.03C1099.13 548.482 1099.68 549.032 1099.68 549.254C1099.69 549.767 1098.96 551.314 1098.71 551.314C1098.12 551.314 1083.49 540.6 1072.64 532.216C1065.22 526.487 1052.2 516.544 1049.88 514.84C1048.3 513.679 1047.01 512.656 1047 512.566C1047 512.476 1047.5 512.364 1048.11 512.315C1048.73 512.267 1049.4 512.208 1049.61 512.185C1049.83 512.162 1054.06 515.206 1059.02 518.951ZM1048.39 515.238C1050.14 516.553 1055.29 520.479 1059.82 523.962C1081.36 540.534 1084.98 543.255 1093.05 548.973L1097.82 552.352L1096.93 552.893C1095.7 553.646 1095.02 553.789 1094.68 553.369C1094.52 553.179 1092.44 551.668 1090.05 550.013C1087.65 548.358 1082.89 544.986 1079.46 542.519C1067.9 534.204 1040.1 513.635 1039.98 513.313C1039.91 513.122 1040.97 513.011 1044.03 512.892C1045.16 512.848 1045.28 512.912 1048.39 515.238ZM1038.51 513.868C1038.84 514.172 1040.75 515.619 1042.76 517.084C1044.77 518.55 1049.74 522.225 1053.82 525.253C1069.45 536.866 1083.94 547.369 1091.4 552.492C1092.85 553.491 1093.47 554.047 1093.28 554.171C1093.12 554.273 1092.29 554.358 1091.44 554.36L1089.89 554.364L1085.09 551.046C1063.58 536.201 1040.82 520.15 1033.87 514.937L1032.4 513.829L1034.7 513.673C1035.96 513.587 1037.1 513.48 1037.23 513.435C1037.73 513.263 1037.93 513.332 1038.51 513.868ZM1036.11 518.076C1048.2 526.845 1062.56 536.986 1078.83 548.23C1083.34 551.345 1086.99 553.894 1086.93 553.894C1086.47 553.894 1082.91 552.5 1081.12 551.619C1077.24 549.705 1047.1 529.396 1029.89 517.097L1026.07 514.371L1027.18 514.232C1030.47 513.82 1029.93 513.587 1036.11 518.076ZM1108.82 533.812C1113.37 536.828 1124.62 545.682 1136.72 555.768C1140.97 559.317 1145.64 563.187 1147.08 564.366C1152.22 568.562 1154.3 571.063 1155.27 574.174C1155.55 575.082 1155.76 575.907 1155.73 576.005C1155.7 576.104 1155.42 580.907 1155.1 586.678C1154.78 592.449 1154.3 600.971 1154.04 605.615C1153.78 610.259 1153.3 618.967 1152.97 624.966C1152.64 630.965 1152.28 637.667 1152.15 639.86C1152.03 642.054 1151.71 647.859 1151.45 652.761C1150.62 668.457 1150.5 670.534 1150.25 673.402C1149.99 676.425 1149.5 679.79 1149.08 681.495C1148.93 682.075 1148.71 682.938 1148.6 683.413C1148.03 685.654 1145.24 688.528 1142.16 690.043C1139.96 691.122 1138.15 691.582 1135.45 691.743C1127.81 692.198 1118.79 688.687 1110.87 682.175C1109.73 681.239 1108.58 680.457 1108.31 680.437C1107.89 680.406 1107.83 680.263 1107.87 679.365C1108.11 674.439 1108.91 658.104 1109.1 654.169C1109.42 647.828 1110.4 623.287 1110.86 610.306C1111.06 604.759 1111.32 597.423 1111.45 594.004C1111.57 590.585 1111.79 583.883 1111.93 579.11C1112.08 574.336 1112.21 570.358 1112.24 570.269C1112.26 570.179 1112.91 570.634 1113.69 571.28C1121.34 577.647 1129.29 582.664 1133.57 583.831C1135.73 584.423 1139.46 584.373 1141.88 583.72C1149.64 581.627 1152.82 575.962 1149.29 570.519C1147.54 567.814 1141.65 562.386 1132.51 555.034C1124.68 548.745 1109.08 536.78 1107.92 536.178C1106.77 535.582 1105.15 535.62 1104.05 536.269L1103.15 536.795L1102.48 536.153C1102.11 535.8 1101.81 535.387 1101.81 535.235C1101.81 534.668 1102.87 533.645 1104.02 533.096C1105.72 532.29 1106.76 532.445 1108.82 533.812ZM1107.82 538.955C1108.33 539.382 1110.34 540.934 1112.28 542.404C1128.23 554.493 1137.69 562.167 1143.78 567.967C1146.56 570.619 1149.28 574.261 1147.24 572.617C1143.87 569.888 1124.94 554.799 1117.45 548.866C1108.32 541.632 1105 538.774 1105.24 538.373C1105.54 537.89 1106.93 538.202 1107.82 538.955ZM994.479 549.253C1006.03 561.732 1014.67 569.875 1035.47 587.913C1039.41 591.335 1042.93 594.355 1043.28 594.624L1043.92 595.113L1043.39 595.603C1042.66 596.294 1041.11 596.92 1041.11 596.528C1041.11 596.364 1038.07 593.592 1034.36 590.368C1013.4 572.172 1000.73 560.319 990.887 549.672L989.476 548.148L990.653 548.009C993.118 547.717 993.03 547.688 994.479 549.253ZM1000.55 550.422C1001.83 551.866 1005.27 555.429 1008.18 558.338C1015.3 565.454 1020.48 570.136 1034.53 582.157C1037.83 584.98 1041.69 588.292 1043.11 589.516C1044.54 590.741 1045.73 591.759 1045.76 591.78C1045.87 591.848 1045.27 593.411 1044.94 593.926L1044.61 594.435L1043.86 593.659C1043.45 593.232 1038.51 588.879 1032.88 583.986C1020.91 573.581 1018.47 571.38 1010.85 564.147C1005.82 559.376 995.675 549.007 995.169 548.124C995.016 547.856 995.279 547.796 996.595 547.796H998.208L1000.55 550.422ZM1004.02 550.9C1013.84 559.44 1023.16 567.795 1035.35 578.972C1044.12 587.014 1044.81 587.698 1045.35 588.909C1045.59 589.448 1045.75 589.926 1045.71 589.973C1045.63 590.053 1034.97 580.985 1026.76 573.854C1017.77 566.039 1009.67 558.348 1003.44 551.705C1000.5 548.57 999.884 547.796 1000.32 547.796C1000.4 547.796 1002.06 549.192 1004.02 550.9ZM990.649 551.256C1000.27 561.527 1011.83 572.382 1029.98 588.172C1034.48 592.089 1038.59 595.687 1039.11 596.168L1040.05 597.042L1038.23 597.048C1036.51 597.053 1036.36 597.013 1035.53 596.283C1035.04 595.86 1033.37 594.408 1031.82 593.058C1022.59 585.026 1013.75 577.096 1007.12 570.919C1002.24 566.365 991.178 555.327 987.598 551.432L984.796 548.382L985.725 548.24C986.235 548.161 986.873 548.082 987.141 548.064C987.486 548.04 988.515 548.977 990.649 551.256ZM984.889 550.322C985.859 551.444 990.888 556.593 996.063 561.764C1006.51 572.202 1013.33 578.513 1028.71 591.98C1030.74 593.765 1032.48 595.34 1032.57 595.48C1032.83 595.901 1029.61 594.052 1027.34 592.478C1021.62 588.508 1015.19 582.776 998.416 566.694C995.181 563.594 991.476 560.054 990.182 558.828C986.535 555.372 982.055 550.855 980.927 549.496L979.905 548.265L981.515 548.273L983.125 548.281L984.889 550.322ZM1130.14 567.147C1138.31 573.288 1145.39 578.817 1145.49 579.131C1145.54 579.263 1145.16 579.602 1144.65 579.885C1143.59 580.483 1143.45 580.508 1143.45 580.094C1143.45 579.534 1141.97 578.389 1135.21 573.702C1125.32 566.84 1118.51 562.053 1115.41 559.78L1112.65 557.765L1112.64 556.201C1112.63 555.34 1112.69 554.482 1112.76 554.292C1112.86 554.043 1114.36 555.083 1118.25 558.085C1121.19 560.36 1126.54 564.438 1130.14 567.147ZM1070.47 555.232C1070.09 555.658 1069.66 559.535 1068.41 573.832C1066.56 594.972 1064.6 627.436 1063.35 657.452C1063.16 662.097 1062.94 666.952 1062.87 668.242C1062.8 669.532 1062.58 674.848 1062.39 680.055C1062.01 690.384 1061.99 690.257 1063.32 690.127C1064.34 690.026 1064.63 689.291 1064.63 686.766C1064.64 684.696 1064.87 678.83 1065.81 656.983C1067.47 618.482 1069.22 591.522 1072.09 560.151C1072.38 557.023 1072.42 555.62 1072.25 555.342C1071.9 554.788 1070.92 554.727 1070.47 555.232ZM1116.39 562.026C1118.14 563.307 1122.9 566.662 1126.98 569.481C1138.4 577.384 1141.89 579.85 1142.35 580.357C1142.76 580.811 1142.75 580.829 1141.99 581.072C1141.56 581.21 1140.71 581.431 1140.1 581.565L1138.98 581.808L1136.33 579.851C1134.88 578.774 1131.62 576.485 1129.1 574.764C1119.83 568.445 1117.63 566.916 1115.01 564.98L1112.34 563.002L1112.48 561.934C1112.56 561.346 1112.63 560.498 1112.63 560.049C1112.63 559.427 1112.7 559.288 1112.92 559.465C1113.09 559.592 1114.65 560.745 1116.39 562.026ZM1115.22 566.691C1116.45 567.614 1119.33 569.651 1121.63 571.218C1123.92 572.785 1127.63 575.313 1129.86 576.836C1132.09 578.359 1134.6 580.1 1135.44 580.706C1136.82 581.709 1136.9 581.807 1136.29 581.807C1132.62 581.807 1125.5 577.642 1115.77 569.799C1114.2 568.534 1112.8 567.499 1112.66 567.499C1112.49 567.499 1112.39 566.969 1112.39 566.078C1112.39 565.002 1112.47 564.7 1112.69 564.835C1112.85 564.933 1113.99 565.768 1115.22 566.691ZM1121.72 584.915C1121.46 585.323 1121.35 587.062 1121.24 592.597C1121.16 596.531 1120.99 602.495 1120.86 605.849C1120.74 609.204 1120.53 615.537 1120.39 619.923C1120.06 630.684 1118.8 664.731 1118.52 670.705C1117.98 681.823 1117.99 681.176 1118.4 681.585C1118.9 682.086 1119.59 682.065 1120.12 681.533C1120.49 681.16 1120.57 680.537 1120.7 676.901C1120.79 674.59 1120.97 670.271 1121.1 667.304C1121.43 659.734 1122.22 638.694 1122.51 629.892C1122.64 625.828 1122.85 619.6 1122.98 616.053C1123.62 598.856 1123.92 585.016 1123.66 584.704C1123.23 584.191 1122.1 584.314 1121.72 584.915ZM1018.81 602.741C1018.68 602.903 1016.89 606.096 1014.83 609.837C1012.77 613.578 1009.83 618.908 1008.3 621.682C1006.76 624.456 1004.38 628.783 1003 631.299C1001.62 633.815 998.445 639.567 995.946 644.083C993.448 648.598 990.536 653.875 989.475 655.811C988.414 657.746 986.089 661.968 984.308 665.193C976.706 678.962 976.379 679.589 976.535 680.079C976.729 680.686 977.481 681.094 978.067 680.908C978.352 680.818 979.513 678.97 981.206 675.911C983.736 671.34 999.524 642.703 1002.18 637.867C1002.85 636.641 1006.03 630.889 1009.23 625.083C1012.43 619.278 1016.36 612.149 1017.97 609.242C1019.57 606.334 1020.88 603.791 1020.88 603.59C1020.88 602.72 1019.35 602.092 1018.81 602.741Z" fill="#263238" fill-opacity="0.73"/>
<path opacity="0.5" fill-rule="evenodd" clip-rule="evenodd" d="M672.311 727.135C672.067 727.244 671.705 727.548 671.507 727.81C671.309 728.072 670.279 730.069 669.219 732.248C667.422 735.94 667.268 736.204 666.968 736.123C665.971 735.852 663.176 735.729 661.461 735.881C658.48 736.145 658.664 736.034 656.94 738.597C656.127 739.806 654.208 742.555 652.677 744.705C651.145 746.855 649.139 749.73 648.218 751.094L646.544 753.575L645.547 754.037C644.998 754.292 644.39 754.625 644.196 754.777C644.003 754.93 642.608 756.905 641.098 759.166C635.601 767.398 629.934 775.24 624.02 782.801C622.828 784.326 621.497 785.989 621.063 786.497C619.252 788.616 618.944 789.898 619.69 792.213C619.935 792.973 620.198 793.633 620.274 793.68C620.351 793.727 620.036 794.257 619.575 794.858C619.114 795.459 618.57 796.284 618.366 796.692C617.535 798.352 618.138 799.909 619.984 800.872C620.573 801.18 620.792 801.206 622.824 801.208C624.035 801.209 626.177 801.128 627.583 801.029C628.989 800.929 631.45 800.783 633.052 800.704C636.716 800.523 654.395 800.353 655.646 800.487L656.578 800.587L657.116 801.68C658.486 804.467 660.545 806.786 662.499 807.745C665.542 809.238 668.813 809.164 671.942 807.53L673.26 806.842L673.786 807.295C674.577 807.978 686.944 819.394 689.303 821.619C692.344 824.487 693.242 825.265 694.363 826.008C695.615 826.838 696.368 827.058 697.71 826.988C698.677 826.937 698.921 826.85 701.235 825.717C709.054 821.889 724.627 812.246 732.563 806.318C735.98 803.765 737.213 801.674 736.497 799.646L736.246 798.935L736.692 797.158C737.439 794.181 738.292 792.02 739.159 790.904C739.543 790.409 739.785 789.507 739.636 789.121C739.594 789.009 739.215 788.721 738.795 788.481C738.375 788.24 737.993 787.982 737.946 787.906C737.899 787.83 738.192 787.252 738.596 786.621C739.943 784.52 740.282 783.39 739.779 782.672C739.519 782.3 738.066 781.597 735.646 780.672C734.767 780.336 734.049 780.022 734.05 779.974C734.051 779.926 735.168 778.544 736.532 776.902C739.101 773.808 739.312 773.437 738.771 772.96C737.861 772.16 735.838 771.522 732.088 770.852C730.173 770.51 728.319 770.085 727.4 769.778C726.564 769.498 725.855 769.246 725.824 769.216C725.793 769.186 728.111 766.805 730.973 763.925C735.63 759.241 736.178 758.641 736.178 758.237C736.178 757.799 736.118 757.755 734.312 756.849C728.653 754.011 722.693 752.369 717.144 752.119C708.863 751.745 701.976 754.016 697.281 758.669C696.278 759.663 694.675 761.681 694.004 762.794C693.828 763.087 693.664 763.327 693.642 763.327C693.619 763.327 693.75 762.639 693.933 761.798C694.526 759.077 694.741 756.603 694.66 753.447C694.546 749.036 693.886 746.047 692.352 742.989C689.475 737.255 683.557 731.955 675.633 728.017C673.571 726.992 672.982 726.836 672.311 727.135ZM675.356 729.558C679.747 731.786 682.946 734.063 686.041 737.163C689.594 740.724 691.287 743.372 692.344 747.021C693.659 751.562 693.387 758.729 691.679 764.537C691.283 765.882 690.138 768.901 690.056 768.818C690.024 768.787 690.08 768.194 690.18 767.501C690.289 766.749 690.36 764.894 690.358 762.9C690.354 760.085 690.303 759.276 690.035 757.759C689.355 753.908 688.049 751.082 685.485 747.91C683.527 745.487 679.805 742.197 676.663 740.111C674.897 738.938 671.626 737.322 670.126 736.879C669.54 736.707 669.011 736.52 668.95 736.466C668.825 736.353 672.252 729.315 672.674 728.819C672.823 728.644 673.019 728.5 673.108 728.5C673.197 728.5 674.208 728.976 675.356 729.558ZM666.362 737.533C668.386 737.88 668.433 737.891 669.629 738.262C675.307 740.026 682.955 746.148 686.235 751.554C687.504 753.646 688.26 755.878 688.663 758.726C688.858 760.106 688.893 761.114 688.839 763.772C688.802 765.599 688.687 767.669 688.584 768.373L688.397 769.652L688.165 768.657C687.315 765.006 685.354 761.852 682.234 759.121C678.968 756.262 674.228 753.939 669.558 752.907C666.399 752.21 664.533 752.029 660.538 752.033C656.762 752.037 654.89 752.187 650.687 752.823C649.643 752.981 648.769 753.089 648.745 753.065C648.677 752.997 650.097 750.924 653.205 746.553C654.734 744.403 656.739 741.524 657.661 740.156L659.337 737.668L660.222 737.506C661.546 737.263 664.871 737.278 666.362 737.533ZM665.757 753.727C675.234 754.849 683.206 759.888 686.02 766.533C686.573 767.838 687.03 770.11 687.03 771.55C687.03 773.293 686.735 773.222 686.53 771.429C686.377 770.084 686.154 769.103 685.881 768.565C685.627 768.063 684.848 767.449 684.465 767.449C684.363 767.449 684.146 767.331 683.985 767.186C683.154 766.441 679.021 765.286 675.808 764.9C671.022 764.326 652.65 763.943 648.075 764.322C643.78 764.678 641.257 765.751 638.734 768.293C637.266 769.772 636.045 771.366 633.171 775.552C631.963 777.311 629.033 781.501 626.66 784.862C624.288 788.224 622.108 791.313 621.817 791.726L621.288 792.477L621.042 791.735C620.707 790.725 620.721 789.629 621.078 789.023C621.234 788.759 622.349 787.299 623.556 785.779C630.352 777.217 636.597 768.621 642.775 759.327C645.274 755.566 645.325 755.518 647.403 754.95C649.294 754.433 654.275 753.756 658.336 753.464C659.754 753.362 663.916 753.51 665.757 753.727ZM720.411 753.868C723.56 754.368 726.99 755.333 730.307 756.653C731.785 757.241 733.977 758.254 734.182 758.443C734.216 758.475 732.746 760.019 730.914 761.874C729.082 763.728 726.852 765.999 725.959 766.921L724.336 768.596L723.809 768.385C723.52 768.269 721.854 767.507 720.107 766.691C714.891 764.255 712.353 763.313 709.432 762.731C707.399 762.326 704.099 762.29 702.621 762.657C699.313 763.479 696.749 765.094 693.368 768.485L691.396 770.463L692.214 768.92C696.225 761.36 698.368 758.869 702.939 756.453C705.628 755.033 708.299 754.17 711.341 753.739C713.28 753.464 718.319 753.536 720.411 753.868ZM708.828 764.12C711.49 764.563 714.436 765.613 718.777 767.667C722.297 769.333 722.957 769.638 723.891 770.034C726.802 771.27 729.006 771.896 732.556 772.499C734.657 772.855 736.948 773.454 737.09 773.685C737.13 773.75 736.108 775.084 734.818 776.651L732.474 779.498L731.236 779.037C726.688 777.342 722.911 775.631 718.974 773.482C713.458 770.47 709.194 768.697 705.996 768.085C704.597 767.817 701.819 767.815 700.569 768.082C697.761 768.681 695.269 769.892 692.57 771.97C691.244 772.99 691.252 772.969 692.971 770.968C695.292 768.266 697.656 766.319 700.007 765.174C702.761 763.832 705.284 763.531 708.828 764.12ZM667.427 765.897C675.113 766.166 678.111 766.538 681.169 767.6C682.088 767.919 683.021 768.216 683.243 768.259C683.465 768.302 683.892 768.579 684.192 768.874C684.77 769.44 684.767 769.432 685.028 771.636C685.124 772.449 685.306 773.17 685.531 773.631C686.295 775.193 688.138 776.464 690.297 776.916C692.252 777.325 693.91 776.912 695.523 775.612C696.753 774.621 697.203 774.414 698.131 774.414C699.105 774.415 700.256 774.948 702.082 776.248C703.561 777.3 704.705 778.079 714.232 784.507C725.635 792.201 727.117 793.222 729.642 795.112C732.496 797.248 734.139 798.63 734.7 799.366C735.27 800.115 735.331 801.142 734.86 802.072C734.664 802.458 734.38 802.886 734.229 803.023C733.96 803.266 733.947 803.251 733.723 802.445C733.158 800.411 731.895 799.179 725.809 794.723C724.364 793.665 721.487 791.554 719.417 790.031C713.274 785.512 702.446 777.802 700.88 776.83C700.439 776.557 700.118 776.477 699.454 776.476C698.655 776.476 698.498 776.535 697.111 777.368C695.154 778.543 694.063 778.877 692.215 778.868C690.437 778.858 689.058 778.442 687.605 777.475C685.855 776.311 684.807 774.752 684.1 772.259C683.23 769.196 682.348 768.396 679.43 768.029C673.274 767.255 653.875 766.429 649.366 766.75C646.947 766.921 645.088 767.374 643.579 768.16C641.861 769.055 641.112 769.849 636.764 775.389C629.259 784.951 622.437 794.5 620.553 798.08L619.996 799.138L619.706 798.769C619.546 798.566 619.415 798.278 619.415 798.129C619.415 797.783 619.869 796.89 620.314 796.36C620.751 795.839 624.429 790.621 629.619 783.157C637.571 771.719 639.735 768.938 641.693 767.637C642.67 766.988 644.131 766.413 645.623 766.09C647.706 765.64 657.599 765.552 667.427 765.897ZM662.882 768.443C668.518 768.623 671.597 768.803 676.376 769.233C680.211 769.578 681.206 769.743 681.206 770.033C681.206 770.113 680.802 770.636 680.307 771.195C676.756 775.212 673.944 778.362 668.422 784.51C660.356 793.492 656.027 798.397 655.864 798.737C655.741 798.997 655.443 799.007 647.697 799.009C638.847 799.011 634.066 799.141 626.624 799.583C623.908 799.743 621.621 799.834 621.54 799.784C620.802 799.328 631.752 783.807 639.638 774.13C642.608 770.486 642.85 770.248 644.311 769.533C645.515 768.944 647.322 768.427 648.819 768.244C649.504 768.16 657.636 768.275 662.882 768.443ZM706.846 769.797C709.988 770.631 713.97 772.394 718.777 775.08C722.668 777.255 724.718 778.154 732.475 781.09C737.936 783.156 738.293 783.305 738.388 783.551C738.493 783.827 738.094 784.7 737.286 785.96C736.848 786.643 736.515 787.029 736.413 786.97C736.323 786.917 733.743 785.254 730.68 783.275C717.928 775.035 714.412 772.977 710.326 771.361C707.263 770.149 703.999 769.634 701.661 769.993C698.393 770.495 694.871 772.234 692.351 774.589C691.785 775.119 691.206 775.552 691.064 775.552C690.738 775.552 691.507 774.733 692.925 773.572C695.565 771.411 698.276 770.048 701.022 769.501C702.534 769.2 705.082 769.329 706.846 769.797ZM682.68 772.673C683.302 774.892 683.921 776 685.322 777.408C686.642 778.735 687.752 779.408 689.516 779.953C691.577 780.59 694.232 780.443 696.116 779.588L696.892 779.235L696.602 779.561C696.443 779.74 695.164 781.167 693.76 782.73C692.356 784.294 689.421 787.588 687.237 790.051C682.351 795.562 677.596 800.881 675.322 803.377C673.874 804.967 673.542 805.261 673.194 805.261C672.967 805.261 672.583 805.412 672.341 805.597C672.1 805.781 671.518 806.126 671.05 806.362C667.131 808.341 662.953 807.359 660.135 803.797C659.43 802.906 658.239 800.81 657.721 799.548L657.505 799.023L659.223 797.06C661.192 794.808 664.652 790.934 671.829 782.941C677.999 776.071 681.971 771.584 682.035 771.414C682.159 771.08 682.322 771.398 682.68 772.673ZM706.988 771.785C711.741 773.178 716.599 775.855 728.579 783.681C731.546 785.619 735.159 787.952 736.462 788.771C738.199 789.862 738.129 789.741 737.552 790.643C736.778 791.854 735.748 794.549 735.318 796.49C735.218 796.943 735.093 797.34 735.041 797.372C734.989 797.404 734.441 797.007 733.822 796.49C731.291 794.372 728.034 792.051 719.701 786.427C715.13 783.342 711.816 781.098 710.042 779.886C701.008 773.718 700.015 773.124 698.386 772.907C697.667 772.812 697.655 772.803 698 772.622C698.613 772.3 700.552 771.687 701.59 771.486C703.093 771.194 705.413 771.323 706.988 771.785ZM701.502 779.01C702.175 779.504 703.493 780.445 704.431 781.099C713.792 787.636 729.787 799.444 731.08 800.772C731.441 801.142 731.876 801.726 732.047 802.07C732.606 803.189 732.399 804.621 731.597 805.191C721.293 812.52 713.127 817.623 702.868 823.143C699.006 825.222 698.306 825.518 697.252 825.518C696.441 825.518 696.219 825.454 695.503 825.021C695.051 824.746 691.969 822.017 688.62 818.924C676.833 808.041 675.894 807.175 675.336 806.677L674.774 806.174L677.13 803.585C679.46 801.026 682.258 797.897 688.15 791.259C695.833 782.605 699.926 778.11 700.127 778.11C700.21 778.11 700.829 778.515 701.502 779.01Z" fill="#263238" fill-opacity="0.73"/>
<path opacity="0.5" fill-rule="evenodd" clip-rule="evenodd" d="M1292.58 272.673C1286.34 273.987 1284.27 274.462 1277.65 276.099C1270.86 277.779 1259.78 280.911 1253.68 282.876C1251.36 283.623 1249.93 284.588 1249.3 285.844C1249 286.455 1248.97 286.647 1249.02 287.63C1249.08 288.527 1249.24 289.164 1249.91 291.057C1250.37 292.336 1251.32 295.043 1252.02 297.074C1256.26 309.229 1260.69 321.188 1264.79 331.572C1265.61 333.646 1265.66 333.833 1265.53 334.376C1265.32 335.3 1265.37 337.714 1265.63 338.825C1266.51 342.678 1269.19 345.811 1273.07 347.501C1275.58 348.595 1277.74 348.944 1284.3 349.317C1286.35 349.433 1288.74 349.588 1289.6 349.661C1300.78 350.606 1315.74 351.238 1319.24 350.914C1322.11 350.648 1324.14 350.125 1326.05 349.161C1328.19 348.081 1326.41 349.811 1357.75 318.411C1363.36 312.786 1366.35 309.699 1366.61 309.246C1367.1 308.4 1367.13 307.666 1366.7 306.971C1366.16 306.085 1364.97 305.302 1363.9 305.13C1363.44 305.056 1363.26 304.918 1362.72 304.223C1361.96 303.254 1361.42 302.888 1360.73 302.887L1360.23 302.887L1360.43 302.511C1360.53 302.304 1360.62 302.09 1360.62 302.036C1360.62 301.982 1359.97 301.212 1359.18 300.326C1358.38 299.44 1357.43 298.34 1357.06 297.881C1356.25 296.861 1355.6 296.476 1354.41 296.311C1352.81 296.089 1352.73 296.062 1352.89 295.767C1353.24 295.107 1352.58 294.465 1349.28 292.261C1346.16 290.171 1344.96 289.603 1344.23 289.86C1343.85 289.993 1343.84 289.983 1343.89 289.632C1343.93 289.329 1343.73 289.029 1342.72 287.896C1340.77 285.719 1340.13 285.369 1337.87 285.275C1336.81 285.231 1335.94 285.283 1334.97 285.447C1334.21 285.576 1333.56 285.66 1333.53 285.633C1333.51 285.606 1333.57 285.215 1333.67 284.765C1334.11 282.879 1333.81 281.774 1332.62 280.912C1331.28 279.941 1327.39 278.175 1325.25 277.566C1323.43 277.048 1321.42 277.183 1319.67 277.939C1319.59 277.973 1319.45 277.768 1319.35 277.485C1319.24 277.194 1318.79 276.606 1318.31 276.131C1317.64 275.466 1317.12 275.118 1315.79 274.461C1312.4 272.787 1310.3 272.326 1307.49 272.648C1306.42 272.771 1300.87 273.688 1299.5 273.97C1299.2 274.032 1299.12 273.97 1298.91 273.499C1298.62 272.861 1298.1 272.328 1297.57 272.124C1296.9 271.87 1295.86 271.984 1292.58 272.673ZM1297.37 273.765C1297.69 274.155 1297.82 274.703 1298.29 277.52C1299.08 282.232 1299.73 287.902 1300.25 294.544C1301.26 307.371 1301.5 310.051 1302.03 314.238C1303.14 322.973 1304.66 329.539 1306.94 335.367C1309.49 341.877 1312.61 345.479 1317.03 346.991C1319.73 347.917 1322.78 347.736 1324.84 346.529C1326.34 345.648 1333.81 338.625 1342.75 329.694C1350.84 321.604 1356.61 315.521 1362.71 308.663C1363.59 307.667 1364.39 306.853 1364.47 306.853C1364.55 306.853 1364.82 307.049 1365.07 307.29C1365.68 307.89 1365.66 308.34 1364.98 309.078C1364.45 309.658 1350.72 323.447 1335.95 338.225C1331.61 342.573 1327.7 346.404 1327.26 346.738C1326.15 347.593 1324.25 348.497 1322.73 348.895C1320.03 349.607 1317.83 349.741 1312.25 349.536C1303.51 349.215 1299.21 348.974 1291.23 348.36C1289.77 348.247 1286.65 348.033 1284.3 347.882C1277.88 347.472 1276.18 347.221 1274.02 346.366C1269.49 344.561 1266.64 340.49 1266.8 336.039C1266.83 335.265 1266.88 334.603 1266.92 334.569C1266.96 334.534 1274.65 334.461 1284.03 334.407C1295.08 334.343 1301.13 334.261 1301.24 334.172C1301.48 333.98 1301.45 333.316 1301.2 333.106C1301.03 332.964 1297.68 332.941 1283.94 332.986L1266.88 333.042L1266.08 330.991C1265.63 329.863 1265.03 328.324 1264.74 327.572C1264.45 326.82 1263.87 325.312 1263.45 324.221C1260.84 317.48 1256.15 304.629 1253.4 296.732C1252.68 294.664 1251.82 292.202 1251.48 291.262C1250.27 287.895 1250.14 287.161 1250.63 286.352C1251.28 285.277 1251.93 284.97 1256.68 283.481C1267.49 280.09 1278.12 277.271 1289.19 274.856C1296.55 273.248 1296.91 273.201 1297.37 273.765ZM1312.39 274.563C1313.24 274.855 1313.99 275.152 1314.06 275.223C1314.23 275.399 1313.74 283.175 1312.55 298.784C1311.48 312.892 1310.88 321.037 1310.51 326.409C1310.22 330.696 1309.84 337.153 1309.83 337.818C1309.83 338.037 1309.79 338.174 1309.74 338.122C1309.63 338.01 1309.63 338.205 1309.42 325.589C1309.23 313.712 1309.45 296.14 1309.9 287.843C1309.94 287.128 1310.03 285.067 1310.11 283.261C1310.18 281.456 1310.31 278.995 1310.38 277.791C1310.55 274.947 1310.55 274.908 1310.3 274.655C1309.76 274.116 1309.21 274.538 1309.1 275.569C1308.83 278.028 1308.29 291.981 1308.05 302.408C1307.9 309.042 1307.97 331.028 1308.14 333.521C1308.24 334.817 1308.11 334.643 1307.31 332.357C1304.81 325.226 1303.28 315.848 1302.17 300.904C1301.31 289.431 1300.66 283.174 1299.72 277.449C1299.54 276.359 1299.41 275.453 1299.43 275.435C1299.49 275.375 1305.97 274.301 1306.98 274.184C1307.54 274.119 1308.64 274.058 1309.42 274.049C1310.75 274.033 1310.96 274.07 1312.39 274.563ZM1315.51 275.93C1316.41 276.394 1317.69 277.429 1317.92 277.88C1318.1 278.232 1318.13 278.528 1318.06 279.355C1317.98 280.223 1317.31 285.842 1317.09 287.433C1317.05 287.696 1316.69 290.742 1316.28 294.202C1315.87 297.662 1315.41 301.478 1315.27 302.681C1315.12 303.885 1314.88 305.947 1314.72 307.263C1314.57 308.579 1314.35 310.395 1314.25 311.297C1314.03 313.085 1313.28 319.552 1312.75 324.221C1312.57 325.838 1312.38 327.394 1312.34 327.678C1312.23 328.517 1311.22 337.735 1311.12 338.891C1311.06 339.475 1310.97 339.982 1310.92 340.018C1310.86 340.054 1310.73 339.945 1310.62 339.777C1310.46 339.514 1310.45 339.026 1310.6 336.393C1310.85 332 1311.5 322 1311.66 320.05C1311.7 319.599 1311.86 317.506 1312.01 315.4C1312.16 313.294 1312.34 310.832 1312.41 309.93C1312.57 308.029 1313.67 293.375 1313.97 289.142C1314.08 287.563 1314.21 285.901 1314.25 285.45C1314.33 284.498 1314.86 276.314 1314.86 275.93C1314.86 275.61 1314.88 275.61 1315.51 275.93ZM1322.81 278.919C1322.75 279.144 1321.55 286.628 1320.77 291.672C1320.58 292.913 1320.27 294.913 1320.08 296.117C1319.9 297.32 1319.59 299.321 1319.4 300.562C1319.08 302.637 1318.52 306.259 1317.84 310.545C1317.7 311.485 1317.39 313.455 1317.16 314.922C1315.7 324.294 1313.22 339.034 1312.68 341.562C1312.55 342.158 1312.49 342.258 1312.33 342.127C1312.23 342.04 1312.17 341.837 1312.21 341.677C1312.24 341.516 1312.4 340.154 1312.55 338.65C1312.98 334.449 1314.67 319.532 1315.53 312.391C1315.9 309.327 1316.28 306.129 1316.76 302.066C1316.99 300.148 1317.29 297.594 1317.43 296.39C1317.58 295.187 1318.07 291.125 1318.52 287.364C1318.97 283.603 1319.38 280.326 1319.41 280.081C1319.47 279.734 1319.6 279.576 1320.02 279.361C1320.69 279.021 1321.83 278.701 1322.44 278.689C1322.81 278.682 1322.87 278.724 1322.81 278.919ZM1325.58 279.17C1326.14 279.351 1326.68 279.55 1326.78 279.612C1326.91 279.7 1326.83 280.369 1326.41 282.724C1325.6 287.192 1324.64 292.056 1323.07 299.604C1321.64 306.476 1320.4 312.267 1317.49 325.794C1316.53 330.225 1315.1 337.093 1314.5 340.086C1314.17 341.778 1313.86 343.249 1313.83 343.354C1313.78 343.503 1313.69 343.479 1313.45 343.248C1313.14 342.955 1313.14 342.935 1313.32 341.963C1314.23 337.154 1316.15 325.947 1317.03 320.255C1317.17 319.315 1317.6 316.607 1317.98 314.238C1318.36 311.868 1318.76 309.345 1318.86 308.631C1318.97 307.916 1319.37 305.331 1319.75 302.887C1320.13 300.442 1320.65 297.057 1320.91 295.365C1321.17 293.672 1321.47 291.734 1321.58 291.057C1321.69 290.38 1322.15 287.487 1322.6 284.629C1323.65 277.918 1323.47 278.635 1324.07 278.748C1324.34 278.799 1325.02 278.989 1325.58 279.17ZM1329.44 280.756C1330.36 281.225 1330.34 280.817 1329.59 284.287C1328.33 290.08 1326.34 297.971 1322.64 311.913C1319.61 323.288 1316.68 334.493 1316.07 336.968C1315.5 339.303 1315.21 340.137 1315.54 338.489C1315.72 337.557 1318.87 322.719 1319.48 319.913C1320.87 313.481 1323 303.454 1323.89 299.194C1325.31 292.361 1327.62 280.46 1327.62 279.974C1327.62 279.903 1328.51 280.287 1329.44 280.756ZM1331.67 281.958C1332.64 282.665 1332.68 282.914 1332.17 284.922C1331.75 286.554 1331.29 287.977 1329.98 291.725C1328.79 295.108 1327.71 298.502 1325.93 304.459C1323.23 313.476 1321.57 319.432 1318.33 331.811C1317.54 334.82 1316.78 337.682 1316.64 338.171C1316.15 339.789 1316.34 338.742 1316.97 336.283C1317.74 333.297 1319.13 327.926 1319.5 326.546C1319.65 325.982 1320.34 323.367 1321.04 320.734C1321.73 318.101 1322.62 314.778 1323 313.349C1325.37 304.498 1328.4 292.714 1329.33 288.664C1329.8 286.629 1330.88 281.732 1330.88 281.634C1330.88 281.463 1331.13 281.565 1331.67 281.958ZM1338.57 286.717C1338.69 286.803 1334.59 298.034 1329.74 310.887C1329.26 312.166 1328.42 314.381 1327.89 315.811C1326.69 319.007 1321.41 332.86 1320.36 335.572C1318.84 339.502 1316.58 345.215 1316.53 345.273C1316.5 345.306 1316.41 345.264 1316.33 345.179C1316.16 345.007 1316.18 344.905 1316.94 342.342C1317.8 339.398 1319.21 334.164 1320.7 328.392C1323.91 315.877 1328 302.015 1331.61 291.399L1333.02 287.228L1334.63 286.934C1336.25 286.64 1338.29 286.527 1338.57 286.717ZM1340.58 287.705L1340.89 288.048L1339.27 291.877C1336.94 297.371 1330.88 311.854 1329.8 314.511C1329.3 315.752 1328.11 318.676 1327.15 321.007C1324.43 327.697 1320.75 337.045 1319.07 341.544C1318.03 344.346 1317.48 345.649 1317.37 345.604C1317.25 345.558 1317.43 344.952 1318 343.53C1320.26 337.891 1325.29 324.775 1329.93 312.391C1330.49 310.896 1339.27 287.339 1339.37 287.048C1339.45 286.827 1340.1 287.179 1340.58 287.705ZM1341.93 289.157L1342.33 289.65L1339.4 295.619C1337.79 298.902 1336.21 302.141 1335.9 302.818C1335.59 303.495 1334.6 305.649 1333.71 307.605C1332.81 309.561 1331.99 311.345 1331.89 311.571C1331.79 311.797 1331.73 311.85 1331.77 311.689C1331.83 311.427 1334.76 304.409 1339.64 292.801C1340.6 290.525 1341.42 288.664 1341.46 288.664C1341.51 288.664 1341.72 288.886 1341.93 289.157ZM1345.2 291.442C1345.43 291.609 1344.79 292.93 1336.5 309.665C1331.57 319.589 1326.33 330.212 1324.84 333.273C1323.35 336.333 1322.11 338.822 1322.09 338.803C1322.01 338.719 1327.24 325.94 1329.92 319.68C1333.21 311.993 1337.38 302.864 1340.68 296.156C1341.82 293.836 1341.93 293.68 1343.09 292.497C1344.34 291.221 1344.67 291.054 1345.2 291.442ZM1347.42 292.743C1347.85 293.03 1348.11 293.295 1348.07 293.402C1348.04 293.501 1346.14 297.014 1343.87 301.209C1339.85 308.625 1338.92 310.344 1334.79 317.93C1332.91 321.385 1330.74 325.403 1327.92 330.649C1327.22 331.965 1325.8 334.458 1324.78 336.188C1323.76 337.918 1322.72 339.687 1322.48 340.12C1322.23 340.552 1322.01 340.906 1321.97 340.906C1321.94 340.906 1322.09 340.552 1322.3 340.12C1322.51 339.687 1323.6 337.456 1324.71 335.162C1325.82 332.868 1331.09 322.204 1336.41 311.464C1345.9 292.335 1346.1 291.94 1346.4 292.1C1346.57 292.19 1347.03 292.48 1347.42 292.743ZM1349.7 294.266C1350.15 294.565 1350.7 294.98 1350.94 295.189L1351.37 295.57L1349.92 297.835C1349.12 299.081 1347.5 301.635 1346.31 303.511C1345.13 305.386 1343.22 308.213 1342.09 309.793C1339.32 313.638 1337.09 316.846 1334.72 320.392C1332.96 323.027 1332.45 323.756 1332.68 323.332C1332.99 322.75 1337.39 314.646 1339.84 310.135C1341.5 307.089 1344.18 302.15 1345.8 299.16C1347.41 296.17 1348.78 293.724 1348.82 293.724C1348.87 293.724 1349.26 293.968 1349.7 294.266ZM1354.62 297.766C1354.72 297.798 1354.23 298.54 1353.39 299.635C1342.84 313.296 1331.36 329.129 1325.53 338.068C1324.95 338.952 1324.45 339.675 1324.42 339.675C1324.38 339.675 1324.44 339.537 1324.55 339.368C1324.66 339.198 1325.43 337.891 1326.27 336.461C1333.21 324.676 1342.03 311.786 1350.75 300.669L1353.19 297.562L1353.82 297.638C1354.16 297.679 1354.52 297.737 1354.62 297.766ZM1356.6 299.535C1357.1 300.136 1357.49 300.672 1357.47 300.726C1357.45 300.78 1356.5 301.809 1355.36 303.014C1346.68 312.162 1337.98 322.52 1329.88 333.35C1328.63 335.024 1327.58 336.393 1327.54 336.393C1327.51 336.393 1327.81 335.916 1328.21 335.333C1328.61 334.75 1329.57 333.35 1330.34 332.222C1335.34 324.91 1343.93 313.169 1352.41 302.049C1354.63 299.133 1355.44 298.174 1355.55 298.288C1355.64 298.373 1356.11 298.934 1356.6 299.535ZM1354.49 306.556C1349.97 311.166 1343.95 317.563 1340.51 321.419C1336.43 325.99 1336.4 326.012 1339.23 322.512C1344.81 315.617 1351.55 307.957 1356.4 302.988L1358.11 301.244L1358.5 301.66L1358.88 302.076L1354.49 306.556ZM1360.54 304.699C1359.82 305.478 1347.33 318.617 1345.69 320.324C1344.82 321.226 1342.68 323.473 1340.93 325.315C1332.17 334.534 1324.91 342.127 1324.91 342.056C1324.91 341.9 1331.7 333.678 1335.02 329.813C1341.46 322.328 1350.45 312.589 1356.66 306.392C1358.41 304.644 1358.43 304.631 1359.28 304.46C1359.76 304.364 1360.33 304.28 1360.55 304.271L1360.95 304.254L1360.54 304.699ZM1362.08 305.69C1362.4 306.095 1362.66 306.467 1362.66 306.517C1362.66 306.761 1353.82 316.383 1349.1 321.279C1342.1 328.53 1328.65 341.631 1325.52 344.251C1324.4 345.187 1322.92 346.027 1322.54 345.944C1322.4 345.914 1324.81 343.292 1329.63 338.231C1333.64 334.014 1339.67 327.675 1343.03 324.145C1346.39 320.614 1349.88 316.956 1350.78 316.016C1351.69 315.075 1354.44 312.198 1356.89 309.622C1359.34 307.046 1361.38 304.941 1361.42 304.946C1361.47 304.95 1361.77 305.285 1362.08 305.69ZM1316.31 339.427C1316.26 339.536 1316.23 339.504 1316.23 339.345C1316.22 339.201 1316.25 339.12 1316.3 339.165C1316.34 339.211 1316.35 339.329 1316.31 339.427ZM1315.36 339.838C1315.31 339.947 1315.28 339.914 1315.28 339.755C1315.27 339.611 1315.3 339.53 1315.35 339.576C1315.39 339.621 1315.4 339.739 1315.36 339.838ZM1323.29 341.763C1323.16 341.897 1323.14 341.881 1323.22 341.687C1323.27 341.552 1323.34 341.476 1323.39 341.518C1323.43 341.56 1323.39 341.67 1323.29 341.763ZM1314.86 344.199C1314.86 344.263 1314.77 344.281 1314.65 344.238C1314.54 344.194 1314.45 344.106 1314.45 344.041C1314.45 343.976 1314.54 343.959 1314.65 344.002C1314.77 344.045 1314.86 344.134 1314.86 344.199Z" fill="#263238" fill-opacity="0.73"/>
</g>
<defs>
<clipPath id="clip0_195_418">
<rect width="1440" height="1024" fill="white"/>
</clipPath>
</defs>
</svg>
