<svg width="149" height="20" viewBox="0 0 149 20" fill="none" xmlns="http://www.w3.org/2000/svg">
<path d="M10.5009 19L3.0389 10.732V19H0.672899V0.877999H3.0389V9.276L10.5269 0.877999H13.5169L5.3009 9.952L13.5949 19H10.5009ZM18.6034 2.802V8.86H25.2074V10.81H18.6034V17.05H25.9874V19H16.2374V0.852H25.9874V2.802H18.6034Z" fill="#716E6E"/>
<path d="M28.6834 9.926C28.6834 8.158 29.0821 6.572 29.8794 5.168C30.6768 3.74667 31.7601 2.63733 33.1294 1.84C34.5161 1.04267 36.0501 0.643999 37.7314 0.643999C39.7074 0.643999 41.4321 1.12067 42.9054 2.074C44.3788 3.02733 45.4534 4.37933 46.1294 6.13H43.2954C42.7928 5.038 42.0648 4.19733 41.1114 3.608C40.1754 3.01867 39.0488 2.724 37.7314 2.724C36.4661 2.724 35.3308 3.01867 34.3254 3.608C33.3201 4.19733 32.5314 5.038 31.9594 6.13C31.3874 7.20467 31.1014 8.47 31.1014 9.926C31.1014 11.3647 31.3874 12.63 31.9594 13.722C32.5314 14.7967 33.3201 15.6287 34.3254 16.218C35.3308 16.8073 36.4661 17.102 37.7314 17.102C39.0488 17.102 40.1754 16.816 41.1114 16.244C42.0648 15.6547 42.7928 14.814 43.2954 13.722H46.1294C45.4534 15.4553 44.3788 16.7987 42.9054 17.752C41.4321 18.688 39.7074 19.156 37.7314 19.156C36.0501 19.156 34.5161 18.766 33.1294 17.986C31.7601 17.1887 30.6768 16.088 29.8794 14.684C29.0821 13.28 28.6834 11.694 28.6834 9.926ZM52.0174 0.877999V19H49.6514V0.877999H52.0174ZM65.5919 19L61.2759 11.59H58.4159V19H56.0499V0.877999H61.8999C63.2692 0.877999 64.4219 1.112 65.3579 1.58C66.3112 2.048 67.0219 2.68067 67.4899 3.478C67.9579 4.27533 68.1919 5.18533 68.1919 6.208C68.1919 7.456 67.8279 8.55667 67.0999 9.51C66.3892 10.4633 65.3145 11.096 63.8759 11.408L68.4259 19H65.5919ZM58.4159 9.692H61.8999C63.1825 9.692 64.1445 9.38 64.7859 8.756C65.4272 8.11467 65.7479 7.26533 65.7479 6.208C65.7479 5.13333 65.4272 4.30133 64.7859 3.712C64.1619 3.12267 63.1999 2.828 61.8999 2.828H58.4159V9.692ZM70.9842 9.926C70.9842 8.158 71.3829 6.572 72.1802 5.168C72.9775 3.74667 74.0609 2.63733 75.4302 1.84C76.8169 1.04267 78.3509 0.643999 80.0322 0.643999C82.0082 0.643999 83.7329 1.12067 85.2062 2.074C86.6795 3.02733 87.7542 4.37933 88.4302 6.13H85.5962C85.0935 5.038 84.3655 4.19733 83.4122 3.608C82.4762 3.01867 81.3495 2.724 80.0322 2.724C78.7669 2.724 77.6315 3.01867 76.6262 3.608C75.6209 4.19733 74.8322 5.038 74.2602 6.13C73.6882 7.20467 73.4022 8.47 73.4022 9.926C73.4022 11.3647 73.6882 12.63 74.2602 13.722C74.8322 14.7967 75.6209 15.6287 76.6262 16.218C77.6315 16.8073 78.7669 17.102 80.0322 17.102C81.3495 17.102 82.4762 16.816 83.4122 16.244C84.3655 15.6547 85.0935 14.814 85.5962 13.722H88.4302C87.7542 15.4553 86.6795 16.7987 85.2062 17.752C83.7329 18.688 82.0082 19.156 80.0322 19.156C78.3509 19.156 76.8169 18.766 75.4302 17.986C74.0609 17.1887 72.9775 16.088 72.1802 14.684C71.3829 13.28 70.9842 11.694 70.9842 9.926ZM94.2662 0.877999V12.344C94.2662 13.956 94.6562 15.152 95.4362 15.932C96.2335 16.712 97.3342 17.102 98.7382 17.102C100.125 17.102 101.208 16.712 101.988 15.932C102.786 15.152 103.184 13.956 103.184 12.344V0.877999H105.55V12.318C105.55 13.826 105.247 15.1 104.64 16.14C104.034 17.1627 103.21 17.9253 102.17 18.428C101.148 18.9307 99.9949 19.182 98.7122 19.182C97.4295 19.182 96.2682 18.9307 95.2282 18.428C94.2055 17.9253 93.3909 17.1627 92.7842 16.14C92.1949 15.1 91.9002 13.826 91.9002 12.318V0.877999H94.2662ZM111.863 17.076H118.207V19H109.497V0.877999H111.863V17.076ZM123.086 2.802V8.86H129.69V10.81H123.086V17.05H130.47V19H120.72V0.852H130.47V2.802H123.086ZM148.298 19H145.932L136.416 4.57V19H134.05V0.852H136.416L145.932 15.256V0.852H148.298V19Z" fill="black"/>
</svg>
